<svg width="1400" height="942" viewBox="0 0 1400 942" fill="none" xmlns="http://www.w3.org/2000/svg">
<path d="M881.018 -427.498C839.008 -389.714 856.105 -280.112 865.386 -232.68C891.765 -97.3529 894.94 37.9745 863.676 173.034C792.113 480.401 511.965 640.918 347.833 879.148C250.135 1020.64 186.876 1199.38 262.103 1373.83" stroke="#25232B" stroke-linecap="round" stroke-linejoin="round"/>
<path d="M917.655 -402.04C886.881 -389.177 897.627 -267.785 906.909 -240.987C970.901 -57.1565 994.592 148.38 915.213 332.211C872.47 431.63 812.386 539.624 744.975 621.088C578.156 822.337 365.663 928.991 386.179 1250.29C388.378 1285.13 388.378 1346.5 403.765 1378.12" stroke="#25232B" stroke-linecap="round" stroke-linejoin="round"/>
<path d="M948.429 -355.95C926.935 -119.596 1106.7 49.4964 1069.33 285.046C1026.83 553.557 792.356 722.114 716.641 974.814C690.751 1060.83 754.254 1354.8 852.441 1365.52" stroke="#25232B" stroke-linecap="round" stroke-linejoin="round"/>
<path d="M992.638 -284.937C980.425 -301.283 984.089 -233.753 985.31 -225.982C991.416 -186.59 1002.65 -150.413 1026.1 -119.06C1094.73 -26.8769 1159.46 113.006 1161.65 231.183C1164.83 397.595 1094.98 527.295 1064.2 684.061C1029.27 860.924 1111.1 1092.19 1260.82 1177.67" stroke="#25232B" stroke-linecap="round" stroke-linejoin="round"/>
<path d="M1170.69 1013.94C1093.02 909.696 1113.3 671.734 1170.45 567.492C1180.22 549.806 1232.73 480.4 1243.97 464.59C1285.98 404.563 1336.53 373.746 1383.43 321.759C1387.09 317.471 1442.29 263.073 1426.42 277.275" stroke="#25232B" stroke-linecap="round" stroke-linejoin="round"/>
<path d="M1195.6 952.574C1171.91 962.489 1155.3 830.109 1159.94 809.743C1185.1 699.069 1266.92 617.337 1351.92 561.598C1364.38 553.291 1441.31 498.356 1446.69 524.885" stroke="#25232B" stroke-linecap="round" stroke-linejoin="round"/>
<path d="M1210.26 919.88C1194.38 898.442 1211.24 856.37 1215.88 837.076C1240.55 733.101 1315.53 687.546 1400.04 652.173" stroke="#25232B" stroke-linecap="round" stroke-linejoin="round"/>
<path d="M792.113 -347.374C783.809 -257.066 815.072 -165.151 804.081 -72.6995C768.91 223.145 630.179 549.002 366.884 669.591C81.6065 800.631 -258.137 459.499 -78.3734 146.772" stroke="#25232B" stroke-linecap="round" stroke-linejoin="round"/>
<path d="M-107.439 361.419C-112.812 421.178 52.7856 511.217 96.5053 516.041C267.965 534.799 467.268 520.328 564.966 330.066C612.349 237.883 602.091 73.6144 529.062 -2.75843C482.9 -50.9939 418.663 -77.5234 375.188 -130.582C288.481 -236.165 293.366 -376.851 422.327 -435.002C467.757 -455.636 512.697 -480.022 558.615 -499.048" stroke="#25232B" stroke-linecap="round" stroke-linejoin="round"/>
<path d="M-88.6328 325.244C-95.7159 403.76 51.5634 395.185 87.9558 395.721C211.299 397.329 436.248 385.002 468.244 215.106C474.839 179.733 460.917 151.06 449.682 119.171C402.054 -17.4961 269.429 -23.1237 176.372 -107.268C97.4813 -178.281 207.391 -313.341 271.627 -340.406" stroke="#25232B" stroke-linecap="round" stroke-linejoin="round"/>
<path d="M74.2801 -139.693C46.9247 -142.64 98.216 -47.2413 106.032 -40.0059C171.978 21.3603 343.193 40.9225 311.686 181.073C302.404 222.073 265.279 230.381 232.55 238.688C194.448 248.067 158.3 263.878 121.663 237.348C79.6535 206.799 50.0999 112.74 -9.49571 116.223C-52.9712 118.903 -91.0733 159.635 -104.751 201.975C-106.705 207.871 -105.972 212.426 -111.59 211.89" stroke="#25232B" stroke-linecap="round" stroke-linejoin="round"/>
<path d="M-40.7604 97.7323C-45.1568 76.0264 0.761128 64.5033 15.9043 74.1504C64.5089 104.7 155.124 226.36 208.369 142.216C228.153 110.863 190.05 81.9217 168.069 71.4707C107.74 43.6013 27.8723 28.5947 36.4208 -64.6606C38.3748 -85.2947 44.4809 -98.6934 61.8222 -108.876" stroke="#25232B" stroke-linecap="round" stroke-linejoin="round"/>
</svg>
