<svg width="45" height="33" viewBox="0 0 45 33" fill="none" xmlns="http://www.w3.org/2000/svg">
<path d="M5.07992 32.3288L4.34253 30.854C6.94312 29.6809 9.17677 27.9023 11.0993 25.5312C13.1532 22.9981 14.1382 20.4285 14.1382 17.7651C14.1382 16.6644 14.0012 15.6706 13.7089 14.8666L13.4749 14.2233L12.9333 14.6419C11.5492 15.7114 9.99184 16.2672 8.38248 16.2672C6.09919 16.2672 4.23279 15.574 2.74093 14.1443C1.25709 12.7222 0.5 10.8644 0.5 8.38475C0.5 6.11466 1.25064 4.25282 2.8078 2.75794L2.80787 2.75802L2.81509 2.7508C4.31329 1.2526 6.17983 0.50227 8.38248 0.50227V0.502366L8.39228 0.502173C11.6081 0.439119 13.9756 1.74658 15.6792 4.33103C17.0836 6.56729 17.8617 9.33115 17.8617 12.709C17.8617 17.0075 16.7564 20.8376 14.549 24.2792C12.4218 27.5319 9.25572 30.1993 5.07992 32.3288Z" stroke="#DEB3AD"/>
<path d="M31.4246 32.3288L30.6872 30.854C33.2878 29.6809 35.5215 27.9023 37.4441 25.5312C39.4979 22.9981 40.4829 20.4285 40.4829 17.7651C40.4829 16.6644 40.3459 15.6706 40.0536 14.8666L39.8196 14.2233L39.278 14.6419C37.8939 15.7114 36.3366 16.2672 34.7272 16.2672C32.4439 16.2672 30.5775 15.574 29.0857 14.1443C27.6018 12.7222 26.8447 10.8644 26.8447 8.38475C26.8447 6.11465 27.5953 4.25281 29.1525 2.75794L29.1526 2.75802L29.1598 2.7508C30.658 1.2526 32.5246 0.50227 34.7272 0.50227V0.50237L34.7372 0.50217C37.8883 0.439148 40.3213 1.74822 42.0239 4.33104C43.4283 6.56729 44.2064 9.33115 44.2064 12.709C44.2064 17.0075 43.1011 20.8376 40.8938 24.2792C38.7665 27.5319 35.6004 30.1993 31.4246 32.3288Z" stroke="#DEB3AD"/>
</svg>
