 <svg display="none" xmlns="http://www.w3.org/2000/svg">
  <symbol id="instagram" viewBox="0 0 30 30">
    <path fill-rule="evenodd" clip-rule="evenodd" d="M0 15C0 6.71573 6.71573 0 15 0C23.2843 0 30 6.71573 30 15C30 23.2843 23.2843 30 15 30C6.71573 30 0 23.2843 0 15Z" fill="#F9F7F8"/>
<path fill-rule="evenodd" clip-rule="evenodd" d="M18.5532 10.3675H16.2972C16.0312 10.3675 15.7342 10.7175 15.7342 11.1855V12.8145H18.5532V15.1355H15.7342V22.1055H13.0712V15.1355H10.6582V12.8145H13.0712V11.4475C13.0712 9.48853 14.4322 7.89453 16.2972 7.89453H18.5532V10.3675Z"/>
<path fill-rule="evenodd" clip-rule="evenodd" d="M0 15C0 6.71573 6.71573 0 15 0C23.2843 0 30 6.71573 30 15C30 23.2843 23.2843 30 15 30C6.71573 30 0 23.2843 0 15Z" fill="#F9F7F8"/>
<path fill-rule="evenodd" clip-rule="evenodd" d="M15 7C12.8273 7 12.5549 7.0092 11.7016 7.04813C10.8501 7.08697 10.2686 7.22223 9.7597 7.42C9.23363 7.62443 8.7875 7.89797 8.3427 8.3427C7.89797 8.7875 7.62443 9.23363 7.42 9.7597C7.22223 10.2686 7.08697 10.8501 7.04813 11.7016C7.0092 12.5549 7 12.8273 7 15C7 17.1727 7.0092 17.4451 7.04813 18.2984C7.08697 19.1499 7.22223 19.7314 7.42 20.2403C7.62443 20.7664 7.89797 21.2125 8.3427 21.6573C8.7875 22.102 9.23363 22.3756 9.7597 22.58C10.2686 22.7778 10.8501 22.913 11.7016 22.9519C12.5549 22.9908 12.8273 23 15 23C17.1727 23 17.4451 22.9908 18.2984 22.9519C19.1499 22.913 19.7314 22.7778 20.2403 22.58C20.7664 22.3756 21.2125 22.102 21.6573 21.6573C22.102 21.2125 22.3756 20.7664 22.58 20.2403C22.7778 19.7314 22.913 19.1499 22.9519 18.2984C22.9908 17.4451 23 17.1727 23 15C23 12.8273 22.9908 12.5549 22.9519 11.7016C22.913 10.8501 22.7778 10.2686 22.58 9.7597C22.3756 9.23363 22.102 8.7875 21.6573 8.3427C21.2125 7.89797 20.7664 7.62443 20.2403 7.42C19.7314 7.22223 19.1499 7.08697 18.2984 7.04813C17.4451 7.0092 17.1727 7 15 7ZM15 8.44143C17.1361 8.44143 17.3891 8.4496 18.2327 8.4881C19.0127 8.52367 19.4363 8.65397 19.7182 8.76353C20.0916 8.90867 20.3581 9.08203 20.638 9.362C20.918 9.6419 21.0913 9.9084 21.2365 10.2818C21.346 10.5637 21.4763 10.9873 21.5119 11.7673C21.5504 12.6109 21.5586 12.8639 21.5586 15C21.5586 17.1361 21.5504 17.3891 21.5119 18.2327C21.4763 19.0127 21.346 19.4363 21.2365 19.7182C21.0913 20.0916 20.918 20.3581 20.638 20.638C20.3581 20.918 20.0916 21.0913 19.7182 21.2365C19.4363 21.346 19.0127 21.4763 18.2327 21.5119C17.3892 21.5504 17.1363 21.5586 15 21.5586C12.8637 21.5586 12.6108 21.5504 11.7673 21.5119C10.9873 21.4763 10.5637 21.346 10.2818 21.2365C9.9084 21.0913 9.64193 20.918 9.36196 20.638C9.08206 20.3581 8.90866 20.0916 8.76353 19.7182C8.65396 19.4363 8.52366 19.0127 8.4881 18.2327C8.4496 17.3891 8.44143 17.1361 8.44143 15C8.44143 12.8639 8.4496 12.6109 8.4881 11.7673C8.52366 10.9873 8.65396 10.5637 8.76353 10.2818C8.90866 9.9084 9.08203 9.6419 9.36196 9.362C9.64193 9.08203 9.9084 8.90867 10.2818 8.76353C10.5637 8.65397 10.9873 8.52367 11.7673 8.4881C12.6109 8.4496 12.8639 8.44143 15 8.44143ZM10.8919 15C10.8919 12.7311 12.7311 10.8919 15 10.8919C17.2689 10.8919 19.1081 12.7311 19.1081 15C19.1081 17.2689 17.2689 19.1081 15 19.1081C12.7311 19.1081 10.8919 17.2689 10.8919 15ZM15 17.6667C13.5272 17.6667 12.3333 16.4728 12.3333 15C12.3333 13.5272 13.5272 12.3333 15 12.3333C16.4728 12.3333 17.6667 13.5272 17.6667 15C17.6667 16.4728 16.4728 17.6667 15 17.6667ZM19.2704 11.6896C19.8006 11.6896 20.2304 11.2598 20.2304 10.7296C20.2304 10.1994 19.8006 9.76957 19.2704 9.76957C18.7402 9.76957 18.3104 10.1994 18.3104 10.7296C18.3104 11.2598 18.7402 11.6896 19.2704 11.6896Z" />
  </symbol>
  <symbol id="facebook" viewBox="0 0 30 30">
  <path fill-rule="evenodd" clip-rule="evenodd" d="M0 15C0 6.71573 6.71573 0 15 0C23.2843 0 30 6.71573 30 15C30 23.2843 23.2843 30 15 30C6.71573 30 0 23.2843 0 15Z" fill="#F9F7F8"/>
<path fill-rule="evenodd" clip-rule="evenodd" d="M18.5532 10.3675H16.2972C16.0312 10.3675 15.7342 10.7175 15.7342 11.1855V12.8145H18.5532V15.1355H15.7342V22.1055H13.0712V15.1355H10.6582V12.8145H13.0712V11.4475C13.0712 9.48853 14.4322 7.89453 16.2972 7.89453H18.5532V10.3675Z"/>
  </symbol>
  <symbol id="lines">
  <path d="M881.018 -427.498C839.008 -389.714 856.105 -280.112 865.386 -232.68C891.765 -97.3529 894.94 37.9745 863.676 173.034C792.113 480.401 511.965 640.918 347.833 879.148C250.135 1020.64 186.876 1199.38 262.103 1373.83" stroke="#25232B" stroke-linecap="round" stroke-linejoin="round"/>
<path d="M917.655 -402.04C886.881 -389.177 897.627 -267.785 906.909 -240.987C970.901 -57.1565 994.592 148.38 915.213 332.211C872.47 431.63 812.386 539.624 744.975 621.088C578.156 822.337 365.663 928.991 386.179 1250.29C388.378 1285.13 388.378 1346.5 403.765 1378.12" stroke="#25232B" stroke-linecap="round" stroke-linejoin="round"/>
<path d="M948.429 -355.95C926.935 -119.596 1106.7 49.4964 1069.33 285.046C1026.83 553.557 792.356 722.114 716.641 974.814C690.751 1060.83 754.254 1354.8 852.441 1365.52" stroke="#25232B" stroke-linecap="round" stroke-linejoin="round"/>
<path d="M992.638 -284.937C980.425 -301.283 984.089 -233.753 985.31 -225.982C991.416 -186.59 1002.65 -150.413 1026.1 -119.06C1094.73 -26.8769 1159.46 113.006 1161.65 231.183C1164.83 397.595 1094.98 527.295 1064.2 684.061C1029.27 860.924 1111.1 1092.19 1260.82 1177.67" stroke="#25232B" stroke-linecap="round" stroke-linejoin="round"/>
<path d="M1170.69 1013.94C1093.02 909.696 1113.3 671.734 1170.45 567.492C1180.22 549.806 1232.73 480.4 1243.97 464.59C1285.98 404.563 1336.53 373.746 1383.43 321.759C1387.09 317.471 1442.29 263.073 1426.42 277.275" stroke="#25232B" stroke-linecap="round" stroke-linejoin="round"/>
<path d="M1195.6 952.574C1171.91 962.489 1155.3 830.109 1159.94 809.743C1185.1 699.069 1266.92 617.337 1351.92 561.598C1364.38 553.291 1441.31 498.356 1446.69 524.885" stroke="#25232B" stroke-linecap="round" stroke-linejoin="round"/>
<path d="M1210.26 919.88C1194.38 898.442 1211.24 856.37 1215.88 837.076C1240.55 733.101 1315.53 687.546 1400.04 652.173" stroke="#25232B" stroke-linecap="round" stroke-linejoin="round"/>
<path d="M792.113 -347.374C783.809 -257.066 815.072 -165.151 804.081 -72.6995C768.91 223.145 630.179 549.002 366.884 669.591C81.6065 800.631 -258.137 459.499 -78.3734 146.772" stroke="#25232B" stroke-linecap="round" stroke-linejoin="round"/>
<path d="M-107.439 361.419C-112.812 421.178 52.7856 511.217 96.5053 516.041C267.965 534.799 467.268 520.328 564.966 330.066C612.349 237.883 602.091 73.6144 529.062 -2.75843C482.9 -50.9939 418.663 -77.5234 375.188 -130.582C288.481 -236.165 293.366 -376.851 422.327 -435.002C467.757 -455.636 512.697 -480.022 558.615 -499.048" stroke="#25232B" stroke-linecap="round" stroke-linejoin="round"/>
<path d="M-88.6328 325.244C-95.7159 403.76 51.5634 395.185 87.9558 395.721C211.299 397.329 436.248 385.002 468.244 215.106C474.839 179.733 460.917 151.06 449.682 119.171C402.054 -17.4961 269.429 -23.1237 176.372 -107.268C97.4813 -178.281 207.391 -313.341 271.627 -340.406" stroke="#25232B" stroke-linecap="round" stroke-linejoin="round"/>
<path d="M74.2801 -139.693C46.9247 -142.64 98.216 -47.2413 106.032 -40.0059C171.978 21.3603 343.193 40.9225 311.686 181.073C302.404 222.073 265.279 230.381 232.55 238.688C194.448 248.067 158.3 263.878 121.663 237.348C79.6535 206.799 50.0999 112.74 -9.49571 116.223C-52.9712 118.903 -91.0733 159.635 -104.751 201.975C-106.705 207.871 -105.972 212.426 -111.59 211.89" stroke="#25232B" stroke-linecap="round" stroke-linejoin="round"/>
<path d="M-40.7604 97.7323C-45.1568 76.0264 0.761128 64.5033 15.9043 74.1504C64.5089 104.7 155.124 226.36 208.369 142.216C228.153 110.863 190.05 81.9217 168.069 71.4707C107.74 43.6013 27.8723 28.5947 36.4208 -64.6606C38.3748 -85.2947 44.4809 -98.6934 61.8222 -108.876" stroke="#25232B" stroke-linecap="round" stroke-linejoin="round"/>
  </symbol>

</svg>